<?xml version="1.0" encoding="UTF-8" standalone="no"?>
<!DOCTYPE svg PUBLIC "-//W3C//DTD SVG 1.1//EN"
 "http://www.w3.org/Graphics/SVG/1.1/DTD/svg11.dtd">
<!-- Generated by graphviz version 2.30.1 (20130218.0645)
 -->
<!-- Title: G Pages: 1 -->
<svg width="166pt" height="258pt"
 viewBox="0.00 0.00 166.00 258.00" xmlns="http://www.w3.org/2000/svg" xmlns:xlink="http://www.w3.org/1999/xlink">
<g id="graph0" class="graph" transform="scale(1 1) rotate(0) translate(4 254)">
<title>G</title>
<polygon fill="white" stroke="white" points="-4,5 -4,-254 163,-254 163,5 -4,5"/>
<g id="clust1" class="cluster"><title>cluster_global</title>
<path fill="none" stroke="gray" d="M20,-8C20,-8 138,-8 138,-8 144,-8 150,-14 150,-20 150,-20 150,-230 150,-230 150,-236 144,-242 138,-242 138,-242 20,-242 20,-242 14,-242 8,-236 8,-230 8,-230 8,-20 8,-20 8,-14 14,-8 20,-8"/>
<text text-anchor="middle" x="79" y="-229.2" font-family="Times,serif" font-size="11.00" fill="gray">global</text>
</g>
<!-- \\Botobor -->
<g id="node1" class="node"><title>\\Botobor</title>
<g id="a_node1"><a xlink:href="botobor.html" xlink:title="Botobor" target="_parent">
<polygon fill="none" stroke="black" points="111,-214 47,-214 47,-178 111,-178 111,-214"/>
<text text-anchor="middle" x="79" y="-193.2" font-family="Courier,monospace" font-size="11.00">Botobor</text>
</a>
</g>
</g>
<!-- \\Botobor_MetaData -->
<g id="node2" class="node"><title>\\Botobor_MetaData</title>
<g id="a_node2"><a xlink:href="botobor.html" xlink:title="Botobor_MetaData" target="_parent">
<polygon fill="none" stroke="black" points="141.5,-160 16.5,-160 16.5,-124 141.5,-124 141.5,-160"/>
<text text-anchor="middle" x="79" y="-139.2" font-family="Courier,monospace" font-size="11.00">Botobor_MetaData</text>
</a>
</g>
</g>
<!-- \\Botobor_Form -->
<g id="node3" class="node"><title>\\Botobor_Form</title>
<g id="a_node3"><a xlink:href="botobor.html" xlink:title="Botobor_Form" target="_parent">
<polygon fill="none" stroke="black" points="128,-106 30,-106 30,-70 128,-70 128,-106"/>
<text text-anchor="middle" x="79" y="-85.2" font-family="Courier,monospace" font-size="11.00">Botobor_Form</text>
</a>
</g>
</g>
<!-- \\Botobor_Keeper -->
<g id="node4" class="node"><title>\\Botobor_Keeper</title>
<g id="a_node4"><a xlink:href="botobor.html" xlink:title="Botobor_Keeper" target="_parent">
<polygon fill="none" stroke="black" points="134.5,-52 23.5,-52 23.5,-16 134.5,-16 134.5,-52"/>
<text text-anchor="middle" x="79" y="-31.2" font-family="Courier,monospace" font-size="11.00">Botobor_Keeper</text>
</a>
</g>
</g>
</g>
</svg>
